<?xml version="1.0" encoding="utf-8"?>
<svg xmlns="http://www.w3.org/2000/svg" data-name="Layer 2" id="Layer_2" version="1.1" viewBox="0 0 500 100">
  <defs>
    <style>
      .cls-1 {
        fill: #000;
        stroke-width: 0px;
      }
    </style>
  </defs>
  <path class="cls-1" d="M0,94.4v-1c7.1,0,7.7-2.5,7.7-6.5V13.1c0-4-.4-6.5-7.7-6.5v-1h16.5l37.8,78.7L91.8,5.6h16.5v1c-7.1,0-7.7,2.5-7.7,6.5v73.7c0,4.2.4,6.5,7.7,6.5v1h-25.5v-1c7.1,0,7.9-2.5,7.9-6.5V11.6l-39.7,83.5h-2.5L9.2,12.6v74.1c0,4.2.4,6.5,7.7,6.5v1H0v.2Z"/>
  <path class="cls-1" d="M115.4,5.6h25.5v.8c-7.1,0-7.9,2.5-7.9,6.5v73.7c0,4,.6,6.5,7.9,6.5v1h-25.5v-1c7.1,0,7.7-2.5,7.7-6.5V13.1c0-4-.4-6.5-7.7-6.5v-.8h0v-.2Z"/>
  <path class="cls-1" d="M147.8,5.6h25.5v.8c-7.1,0-7.9,2.5-7.9,6.5v79.5h16.3c22.5,0,29-9.6,31.5-26.7h1.2l-4.2,28.2h-62.4v-.8c7.1,0,7.7-2.5,7.7-6.5V13.1c0-4-.4-6.5-7.7-6.5v-.8h0v-.2Z"/>
  <path class="cls-1" d="M221.4,5.6h25.5v.8c-7.1,0-7.9,2.5-7.9,6.5v79.5h16.3c22.5,0,29-9.6,31.5-26.7h1.2l-4.2,28.2h-62.4v-.8c7.1,0,7.7-2.5,7.7-6.5V13.1c0-4-.4-6.5-7.7-6.5v-.8h0v-.2Z"/>
  <path class="cls-1" d="M295.1,5.6h25.5v.8c-7.1,0-7.9,2.5-7.9,6.5v73.7c0,4,.6,6.5,7.9,6.5v1h-25.5v-1c7.1,0,7.7-2.5,7.7-6.5V13.1c0-4-.4-6.5-7.7-6.5v-.8h0v-.2Z"/>
  <path class="cls-1" d="M371.7,4.7c21.5,0,43,15.2,43,45.3s-21.5,45.3-43,45.3-43-15.4-43-45.3,21.5-45.3,43-45.3ZM339.3,50c0,30.9,16.3,43.6,32.3,43.6s32.3-12.7,32.3-43.6-16.3-43.6-32.3-43.6-32.3,12.7-32.3,43.6Z"/>
  <path class="cls-1" d="M422.4,5.6h16.5l51.7,73.7V13.1c0-4-.6-6.5-7.9-6.5v-1h17.3v1c-7.1,0-7.7,2.5-7.7,6.5v82h-2.5l-57.8-82.6v74.1c0,4.2.6,6.5,7.9,6.5v1h-17.3v-1c7.1,0,7.7-2.5,7.7-6.5V13.1c0-4-.4-6.5-7.7-6.5v-1h-.2Z"/>
</svg>